<?xml version="1.0" encoding="utf-8"?>
<!-- Generator: Adobe Illustrator 19.2.1, SVG Export Plug-In . SVG Version: 6.00 Build 0)  -->
<svg version="1.1" id="layer" xmlns="http://www.w3.org/2000/svg" xmlns:xlink="http://www.w3.org/1999/xlink" x="0px" y="0px"
	 viewBox="0 0 652 652" style="enable-background:new 0 0 652 652;" xml:space="preserve">
<style type="text/css">
	.st0{fill:#ffffff;}
	.st1{fill:#ffffff;}
</style>
<path class="st0" d="M223.9,322.9v-3.5l-3.1,3.3v-7.9h-2.3v7.8l-3-3.3v3.5l4.2,4.6L223.9,322.9z M199,379.2l2.5-2.5l-4.5,0.2
	l5.6-5.5l-1.7-1.7l-5.5,5.5l0.2-4.5l-2.5,2.5l-0.2,6.2C192.8,379.4,199,379.2,199,379.2z M141.7,401.4h3.5l-3.3-3.1h7.9V396h-7.8
	l3.3-3h-3.5l-4.6,4.2L141.7,401.4z M85.4,376.6l2.5,2.5l-0.2-4.5l5.6,5.6l1.6-1.7l-5.5-5.5l4.5,0.2l-2.5-2.5l-6.2-0.2
	C85.2,370.3,85.4,376.6,85.4,376.6z M63.2,319.2v3.5l3.1-3.3v7.9h2.3v-7.8l3,3.3v-3.5l-4.2-4.6C67.4,314.6,63.2,319.2,63.2,319.2z
	 M88,262.9l-2.5,2.5l4.6-0.2l-5.6,5.5l1.7,1.7l5.5-5.5l-0.2,4.5l2.5-2.5l0.2-6.2C94.2,262.7,88,262.9,88,262.9z M145.4,240.7h-3.5
	l3.3,3.1h-7.9v2.3h7.8l-3.3,3h3.5l4.6-4.2L145.4,240.7z M201.7,265.5l-2.5-2.5l0.2,4.5l-5.6-5.6l-1.6,1.7l5.5,5.5l-4.5-0.2l2.5,2.5
	l6.2,0.2C201.9,271.8,201.7,265.5,201.7,265.5z M221.6,302.1l-0.9-3.4l-2.1,4l-2-7.6l-2.3,0.6l2,7.6l-3.8-2.4l0.9,3.4l5.3,3.3
	C218.7,307.6,221.6,302.1,221.6,302.1z M212.2,362.8l1.8-3l-4.3,1.3l3.9-6.8l-2-1.2l-3.9,6.8l-1-4.4l-1.8,3.1l1.4,6.1
	C206.2,364.7,212.2,362.8,212.2,362.8z M162.5,399.2l3.4-0.9l-4-2.1l7.6-2l-0.6-2.2l-7.6,2l2.4-3.8l-3.4,0.9l-3.3,5.3
	C157,396.3,162.5,399.2,162.5,399.2z M101.7,389.7l3.1,1.8l-1.3-4.3l6.8,3.9l1.2-2l-6.8-3.9l4.4-1l-3.1-1.8l-6.1,1.4L101.7,389.7z
	 M65.4,340.1l0.9,3.4l2.1-4l2,7.6l2.3-0.6l-2-7.5l3.8,2.4l-0.9-3.4l-5.3-3.3L65.4,340.1z M74.8,279.3l-1.8,3.1l4.3-1.4l-3.9,6.8
	l2,1.1l3.9-6.7l1,4.4l1.8-3.1l-1.4-6.1L74.8,279.3z M124.5,243l-3.4,0.9l4,2.1l-7.6,2l0.6,2.2l7.5-2l-2.4,3.8l3.4-0.9l3.3-5.3
	C130,245.9,124.5,243,124.5,243z M185.3,252.4l-3.1-1.8l1.4,4.4l-6.8-3.9l-1.1,2l6.7,3.9l-4.4,1l3,1.8l6.1-1.4L185.3,252.4z
	 M214,282.5l-1.8-3l-1,4.4l-3.9-6.8l-2,1.2l3.9,6.8l-4.3-1.3l1.8,3l6,1.8C212.7,288.6,214,282.5,214,282.5z M220.7,343.7l0.9-3.4
	l-3.8,2.4l2-7.6l-2.2-0.6l-2,7.5l-2.1-4l-0.9,3.4l2.9,5.5L220.7,343.7L220.7,343.7z M182.1,391.6l3.1-1.8l-4.4-1l6.8-3.9l-1.2-2
	l-6.8,3.9l1.3-4.3l-3,1.8l-1.8,5.9C176,390.2,182.1,391.6,182.1,391.6z M120.9,398.2l3.4,0.9l-2.4-3.8l7.6,2l0.6-2.2l-7.5-2l4-2.1
	l-3.4-0.9l-5.5,2.9L120.9,398.2z M73,359.6l1.8,3l1-4.4l3.9,6.8l2-1.2l-3.9-6.8l4.3,1.3l-1.8-3.1l-6-1.8L73,359.6z M66.4,298.5
	l-0.9,3.4l3.8-2.4l-2,7.6l2.2,0.6l2-7.5l2.1,4l0.9-3.4l-2.9-5.5C71.6,295.2,66.4,298.5,66.4,298.5z M104.9,250.5l-3,1.8l4.4,1
	l-6.8,3.9l1.2,2l6.8-3.9l-1.3,4.3l3.1-1.8l1.8-6C111,251.9,104.9,250.5,104.9,250.5z M253.3,327.6h5.4l-5-4.7h11.9v-3.5h-11.8l5-4.6
	h-5.4l-6.9,6.4C246.4,321.2,253.3,327.6,253.3,327.6z M216.5,403.3l3.8,3.8l-0.2-6.9l8.4,8.4l2.5-2.5l-8.4-8.4l6.8,0.2l-3.8-3.8
	l-9.4-0.3C216.2,393.9,216.5,403.3,216.5,403.3z M137,430.8v5.4l4.7-5v11.9h3.5v-11.9l4.6,5v-5.4l-6.4-6.9L137,430.8z M61.3,394.1
	l-3.8,3.8l6.9-0.2L56,406l2.5,2.5l8.4-8.4l-0.2,6.8l3.8-3.8l0.3-9.5C70.7,393.7,61.3,394.1,61.3,394.1z M33.7,314.5h-5.4l5,4.7H21.5
	v3.5h11.8l-5,4.6h5.4l6.9-6.4L33.7,314.5z M70.5,238.8l-3.8-3.8l0.2,6.9l-8.4-8.4l-2.5,2.5l8.4,8.4l-6.8-0.2l3.8,3.8l9.4,0.3
	L70.5,238.8z M150.1,211.3v-5.4l-4.7,5v-11.9h-3.5v11.9l-4.6-5v5.4l6.4,6.9L150.1,211.3z M225.8,248.1l3.8-3.8l-6.9,0.3l8.4-8.4
	l-2.5-2.5l-8.4,8.4l0.2-6.8l-3.8,3.8l-0.3,9.4L225.8,248.1L225.8,248.1z M251.2,298.9l5.2-1.4l-6.1-3.2l11.5-3.1l-0.9-3.4l-11.4,3.1
	l3.6-5.8l-5.2,1.4l-5,8C242.9,294.5,251.2,298.9,251.2,298.9z M235.3,381.6l4.6,2.7l-2-6.6l10.3,6l1.8-3.1l-10.2-5.9l6.6-1.5
	l-4.6-2.7l-9.2,2.1C232.5,372.6,235.3,381.6,235.3,381.6z M165.6,428.8l1.4,5.2l3.2-6.1l3.1,11.5l3.4-0.9l-3.1-11.5l5.8,3.6
	l-1.4-5.2l-8-5C170,420.4,165.6,428.8,165.6,428.8z M83,412.9l-2.7,4.6l6.6-2l-5.9,10.3l3,1.8l5.9-10.3l1.5,6.6l2.7-4.6l-2.1-9.2
	C92,410.1,83,412.9,83,412.9z M35.8,343.2l-5.2,1.4l6.1,3.2l-11.5,3.1l0.9,3.4l11.5-3.1l-3.6,5.8l5.2-1.4l5-8
	C44.1,347.6,35.8,343.2,35.8,343.2z M51.7,260.5l-4.6-2.7l2,6.6l-10.3-5.9l-1.8,3.1l10.3,5.9l-6.6,1.5l4.6,2.7l9.2-2.1L51.7,260.5z
	 M121.4,213.3l-1.4-5.2l-3.2,6.1l-3.1-11.5l-3.4,0.9l3.1,11.4l-5.8-3.6l1.4,5.2l8,5C117,221.7,121.4,213.3,121.4,213.3z
	 M204.1,229.3l2.7-4.6l-6.6,2l6-10.3l-3.1-1.8l-5.9,10.3l-1.5-6.6l-2.7,4.6l2.1,9.2C195,232,204.1,229.3,204.1,229.3z M241.9,271.8
	l4.6-2.7l-6.7-1.5l10.3-6l-1.8-3.1l-10.3,5.9l2-6.5l-4.6,2.7l-2.8,9C232.7,269.7,241.9,271.8,241.9,271.8z M247.9,355.8l5.2,1.4
	l-3.7-5.8l11.5,3.1l0.9-3.4l-11.4-3.1l6-3.2l-5.2-1.4l-8.3,4.4C242.8,347.8,247.9,355.8,247.9,355.8z M192.8,419.4l2.7,4.6l1.5-6.7
	l6,10.3l3-1.8l-5.9-10.3l6.5,2l-2.7-4.6l-9-2.8C194.9,410.2,192.8,419.4,192.8,419.4z M108.8,425.4l-1.4,5.2l5.8-3.6l-3.1,11.5
	l3.4,0.9l3.1-11.4l3.2,6l1.4-5.2l-4.4-8.4C116.8,420.4,108.8,425.4,108.8,425.4z M45.2,370.3l-4.6,2.7l6.7,1.5l-10.3,5.9l1.8,3
	l10.3-5.9l-2,6.5l4.6-2.6l2.8-9C54.4,372.4,45.2,370.3,45.2,370.3z M39.2,286.3L34,285l3.7,5.8l-11.5-3.1l-0.9,3.4l11.4,3.1l-6,3.2
	l5.2,1.4l8.3-4.4L39.2,286.3z M94.3,222.7l-2.7-4.6l-1.5,6.7l-5.9-10.3l-3.1,1.8l5.9,10.3l-6.5-2l2.7,4.6l9,2.8L94.3,222.7z
	 M178.2,216.7l1.4-5.2l-5.8,3.7l3.1-11.5l-3.4-0.9l-3.1,11.4l-3.2-6l-1.4,5.2l4.4,8.4C170.2,221.7,178.2,216.7,178.2,216.7z
	 M203.3,309.9l-2.8,0.4l3,2.1l-6.2,0.8l0.2,1.8l6.2-0.8l-2.3,2.8l2.8-0.4l3.2-3.8C207.4,312.8,203.3,309.9,203.3,309.9z
	 M230.4,307.5l0.6,4.4l3.3-4.6l1.3,9.8l2.9-0.4l-1.3-9.7l4.3,3.6l-0.6-4.4l-6-5C234.9,301.2,230.4,307.5,230.4,307.5z M193.7,355.4
	l-2.2-1.7l0.6,3.6l-5-3.8l-1.1,1.5l5,3.8l-3.6,0.3l2.2,1.7l5-0.5C194.5,360.3,193.7,355.4,193.7,355.4z M214.5,372.9l-2.7,3.5
	l5.6-0.9l-6,7.8l2.3,1.8l6-7.8l0.5,5.6l2.7-3.5l-0.7-7.8C222.2,371.6,214.5,372.9,214.5,372.9z M154.7,380.8l-0.4-2.8l-2.1,3
	l-0.8-6.2l-1.8,0.2l0.8,6.2l-2.8-2.3l0.4,2.8l3.8,3.2L154.7,380.8z M157,407.9l-4.4,0.6l4.6,3.3l-9.8,1.3l0.4,2.9l9.7-1.3l-3.6,4.3
	l4.4-0.6l5-6C163.4,412.4,157,407.9,157,407.9z M109.2,371.2l1.7-2.2l-3.6,0.6l3.8-5l-1.5-1.1l-3.8,5l-0.3-3.6l-1.7,2.2l0.5,5
	C104.3,372.1,109.2,371.2,109.2,371.2z M91.7,392.1l-3.5-2.7l1,5.6l-7.8-6l-1.8,2.3l7.8,5.9l-5.6,0.5l3.5,2.7l7.8-0.7L91.7,392.1
	L91.7,392.1z M83.8,332.3l2.8-0.4l-3-2.1l6.2-0.8l-0.2-1.8l-6.2,0.8l2.3-2.8l-2.8,0.4l-3.2,3.8L83.8,332.3z M56.7,334.6l-0.6-4.4
	l-3.3,4.6l-1.3-9.7l-2.9,0.4l1.3,9.7l-4.3-3.6l0.6,4.4l6,5C52.1,341,56.7,334.6,56.7,334.6z M93.3,286.7l2.2,1.7l-0.6-3.6l5,3.8
	l1.1-1.5l-5-3.8l3.6-0.3l-2.2-1.7l-5,0.5C92.5,281.8,93.3,286.7,93.3,286.7z M72.5,269.2l2.7-3.5l-5.6,1l6-7.8l-2.3-1.8l-5.9,7.8
	l-0.5-5.6l-2.7,3.5l0.7,7.8C64.8,270.5,72.5,269.2,72.5,269.2z M132.3,261.3l0.4,2.8l2.1-3l0.8,6.2l1.8-0.2l-0.8-6.2l2.8,2.3
	l-0.4-2.8l-3.8-3.2C135.2,257.2,132.3,261.3,132.3,261.3z M130,234.2l4.4-0.6l-4.6-3.3l9.7-1.3l-0.4-2.9l-9.7,1.3l3.6-4.3l-4.4,0.6
	l-5,6C123.6,229.7,130,234.2,130,234.2z M177.9,270.9l-1.7,2.2l3.6-0.6l-3.8,5l1.5,1.1l3.8-5l0.3,3.6l1.7-2.2l-0.5-5
	C182.8,270.1,177.9,270.9,177.9,270.9z M195.4,250.1l3.5,2.7l-1-5.6l7.8,6l1.8-2.3l-7.8-6l5.6-0.5l-3.5-2.7l-7.8,0.7
	C194.1,242.4,195.4,250.1,195.4,250.1z M198.4,294.8l-2.6,1.1l3.4,1.3l-5.8,2.4l0.7,1.7l5.8-2.4l-1.5,3.3l2.6-1.1l2.1-4.5
	C203,296.5,198.4,294.8,198.4,294.8z M223.9,285.5l1.7,4.1l2-5.3l3.8,9.1l2.7-1.1l-3.7-9l5.1,2.3l-1.7-4.1l-7.1-3.2
	C226.6,278.2,223.9,285.5,223.9,285.5z M200.9,341.3l-2.6-1.1l1.5,3.3l-5.8-2.4l-0.7,1.7l5.8,2.4l-3.4,1.3l2.6,1.1l4.7-1.7
	C203,345.8,200.9,341.3,200.9,341.3z M225.5,352.8l-1.7,4.1l5.2-2.4l-3.8,9.1l2.7,1.1l3.7-9l2,5.3l1.7-4.1l-2.7-7.3
	C232.6,349.5,225.5,352.8,225.5,352.8z M169.8,375.9l-1.1-2.6l-1.3,3.4l-2.4-5.8l-1.7,0.7l2.4,5.8l-3.3-1.5l1.1,2.6l4.5,2.1
	C168.1,380.6,169.8,375.9,169.8,375.9z M179.1,401.5l-4.1,1.7l5.3,2l-9.1,3.8l1.1,2.7l9-3.8L179,413l4.1-1.7l3.3-7.1
	C186.4,404.2,179.1,401.5,179.1,401.5z M123.3,378.4l1.1-2.6l-3.3,1.5l2.4-5.8l-1.7-0.7l-2.4,5.8l-1.2-3.4l-1.1,2.6l1.7,4.7
	L123.3,378.4z M111.8,403l-4.1-1.7l2.4,5.2l-9.1-3.8l-1.1,2.7l9,3.7l-5.3,1.9l4.1,1.7l7.3-2.7C115.1,410.1,111.8,403,111.8,403z
	 M88.7,347.3l2.6-1.1l-3.4-1.3l5.8-2.4l-0.7-1.7l-5.8,2.4l1.5-3.3l-2.6,1.1l-2.1,4.5C84,345.6,88.7,347.3,88.7,347.3z M63.1,356.6
	l-1.7-4.1l-2,5.3l-3.8-9.1l-2.7,1.1l3.7,9l-5.1-2.3l1.7,4.1l7.1,3.2C60.4,363.9,63.1,356.6,63.1,356.6z M86.2,300.9l2.6,1.1
	l-1.5-3.3l5.8,2.4l0.7-1.7l-5.8-2.4l3.4-1.3l-2.6-1.1l-4.7,1.7C84.1,296.3,86.2,300.9,86.2,300.9z M61.5,289.3l1.7-4.1l-5.2,2.4
	l3.8-9.1l-2.7-1.1l-3.8,9l-2-5.3l-1.7,4.1l2.7,7.3C54.4,292.6,61.5,289.3,61.5,289.3z M117.2,266.2l1.1,2.6l1.3-3.4l2.4,5.8l1.7-0.7
	l-2.4-5.8l3.3,1.5l-1.1-2.6l-4.5-2.1L117.2,266.2z M108,240.7l4.1-1.7l-5.3-2l9.1-3.8l-1.1-2.7l-9,3.7l2.3-5.1l-4.1,1.7l-3.3,7.1
	C100.7,237.9,108,240.7,108,240.7z M163.7,263.7l-1.1,2.6l3.3-1.5l-2.4,5.8l1.7,0.7l2.4-5.8l1.3,3.4l1.1-2.6l-1.7-4.7
	C168.3,261.6,163.7,263.7,163.7,263.7z M175.2,239.1l4.1,1.7l-2.4-5.2l9.1,3.8l1.1-2.7l-9-3.7l5.3-2l-4.1-1.7L172,232
	C172,232,175.2,239.1,175.2,239.1z M189.7,281.5l-2.2,1.7l3.6,0.3l-5,3.8l1.1,1.5l5-3.8l-0.6,3.5l2.2-1.7l0.8-4.9
	C194.7,282,189.7,281.5,189.7,281.5z M212,265.9l2.7,3.5l0.5-5.6l6,7.8l2.3-1.8l-6-7.8l5.5,0.9l-2.7-3.5l-7.7-1.3L212,265.9z
	 M204.1,325.7l-2.8-0.4l2.3,2.8l-6.2-0.8l-0.2,1.9l6.2,0.8l-2.9,2.1l2.8,0.4l4.1-2.9C207.3,329.6,204.1,325.7,204.1,325.7z
	 M230.9,330.5l-0.6,4.4l4.4-3.6l-1.3,9.7l2.9,0.4l1.3-9.7l3.3,4.6l0.6-4.4l-4.5-6.4C236.9,325.5,230.9,330.5,230.9,330.5z
	 M183.1,367.2l-1.7-2.2l-0.3,3.6l-3.8-5l-1.5,1.1l3.8,5l-3.6-0.6l1.7,2.2l4.9,0.8L183.1,367.2z M198.7,389.5l-3.5,2.7l5.6,0.5
	l-7.8,6l1.8,2.3l7.8-5.9l-0.9,5.5l3.5-2.7l1.3-7.7L198.7,389.5z M138.9,381.7l0.4-2.8l-2.8,2.3l0.8-6.2l-1.8-0.2l-0.8,6.2l-2.1-2.9
	l-0.4,2.8l2.9,4.1C135,384.9,138.9,381.7,138.9,381.7z M134.1,408.5l-4.4-0.6l3.6,4.4l-9.8-1.3l-0.4,2.9l9.7,1.3l-4.6,3.3l4.4,0.6
	l6.4-4.5C139.1,414.5,134.1,408.5,134.1,408.5z M97.3,360.6l2.2-1.7l-3.6-0.3l5-3.8l-1.1-1.5l-5,3.8l0.6-3.5l-2.2,1.7l-0.8,4.9
	C92.4,360.2,97.3,360.6,97.3,360.6z M75.1,376.2l-2.7-3.5l-0.5,5.7l-6-7.8l-2.3,1.8l5.9,7.8l-5.5-1l2.7,3.5l7.7,1.3
	C74.3,384,75.1,376.2,75.1,376.2z M82.9,316.4l2.8,0.4l-2.3-2.8l6.2,0.8l0.2-1.8l-6.2-0.8l2.9-2.1l-2.8-0.4l-4.1,2.9L82.9,316.4z
	 M56.1,311.7l0.6-4.4l-4.4,3.6l1.3-9.8l-2.9-0.4l-1.3,9.7l-3.3-4.6l-0.6,4.4l4.5,6.4L56.1,311.7z M103.9,274.9l1.7,2.2l0.3-3.6
	l3.8,5l1.5-1.1l-3.8-5l3.5,0.6l-1.7-2.2l-4.9-0.8C104.4,269.9,103.9,274.9,103.9,274.9z M88.4,252.6l3.5-2.7l-5.7-0.5l7.8-6
	l-1.8-2.3l-7.8,5.9l0.9-5.5l-3.5,2.7l-1.3,7.7C80.6,251.9,88.4,252.6,88.4,252.6z M148.2,260.4l-0.4,2.8l2.8-2.3l-0.8,6.2l1.9,0.2
	l0.8-6.2l2.1,2.9l0.4-2.8l-2.9-4.1C152,257.3,148.2,260.4,148.2,260.4z M152.9,233.7l4.4,0.6l-3.6-4.4l9.7,1.3l0.4-2.9l-9.7-1.3
	l4.6-3.3l-4.4-0.6l-6.4,4.5L152.9,233.7z M166.1,243.9l-3.4-0.9l2.4,3.8l-7.6-2l-0.6,2.3l7.5,2l-4,2.1l3.4,0.9l5.5-2.9
	C169.4,249.2,166.1,243.9,166.1,243.9z"/>
<path class="st1" d="M297.8,301.7c0-13.1,4.8-20.2,18.6-20.2h27.1c13.6,0,18.6,7,18.6,20.2V326c0,13.1-4.8,20.2-18.6,20.2h-27.1
	c-13.8,0-18.6-7.1-18.6-20.2V301.7z M340.1,331.5c3.8,0,6.6-0.8,6.6-5.1v-25c0-4.3-2.8-5.1-6.6-5.1h-20.3c-3.8,0-6.6,0.8-6.6,5.1v25
	c0,4.2,2.8,5.1,6.6,5.1H340.1z M388.2,284.7c0.1-1.8,1.6-3.2,3.4-3.1H433c13.8,0,18.6,7,18.6,20.2c0,12.6-5.4,19.5-18.6,19.5h-29.6
	v21.5c0,1.8-1.4,3.4-3.3,3.4h-8.7c-1.8-0.1-3.3-1.6-3.3-3.4L388.2,284.7z M429.2,306.5c3.9,0,7-0.6,7-5.1s-3-5.1-6.7-5.1h-26.1v10.2
	L429.2,306.5z M473.3,284.7c0.1-1.8,1.6-3.2,3.4-3.1h51.9c1.8-0.1,3.4,1.3,3.4,3.1v8.4c-0.1,1.8-1.6,3.3-3.4,3.3h-40v10.2h25.8
	c1.8,0,3.4,1.4,3.4,3.3v8.4c-0.1,1.8-1.6,3.2-3.4,3.1h-25.9v10.2h39.9c1.8,0,3.4,1.4,3.5,3.3v8.4c-0.1,1.8-1.6,3.2-3.5,3.1h-51.9
	c-1.8-0.1-3.3-1.6-3.3-3.4V284.7z M557.3,284.7c0.1-1.8,1.6-3.2,3.4-3.1h42.2c13.8,0,18.5,7,18.5,20.2v41c0,1.9-1.5,3.4-3.4,3.4
	h-8.5c-1.8,0-3.3-1.5-3.3-3.4c0,0,0-0.1,0-0.1v-41.4c0-4.3-3-5.1-6.6-5.1h-27.1v46.5c0,1.8-1.5,3.4-3.3,3.4h-8.7
	c-1.8-0.1-3.3-1.6-3.3-3.4L557.3,284.7z M309.2,393.7c-7.6,0-11.4-4.9-11.4-14.2c0-9.8,4.6-14.1,11.6-14.1c2.2-0.1,4.4,0.4,6.4,1.4
	c-0.1,0.7-0.4,1.4-0.7,2.1c-1.8-1-3.7-1.5-5.7-1.4c-6.1,0-9.1,3.2-9.1,12.2c0,8,2.7,11.9,9,11.9c2.3,0,4.5-0.6,6.5-1.8
	c0.3,0.7,0.5,1.4,0.7,2.1C314.2,393.2,311.7,393.8,309.2,393.7L309.2,393.7z M329.3,393.7c-5.2,0-8.5-3.1-8.5-11
	c0-7.2,3.5-11,8.7-11s8.6,2.9,8.6,11C338.1,390.3,334.4,393.7,329.3,393.7L329.3,393.7z M329.5,373.7c-3.5,0-6.4,1.7-6.4,9
	c0,7,2.4,9,6.2,9s6.4-1.9,6.4-9S333.3,373.7,329.5,373.7z M369.3,393.3v-15.5c0.2-2-1.2-3.8-3.2-4.1c-0.3,0-0.6,0-0.8,0
	c-2.1,0-4.2,0.8-5.7,2.2v17.3h-2.2v-15.5c0.2-2.1-1.4-3.9-3.5-4.1c-0.2,0-0.5,0-0.7,0c-2.1,0-4,0.8-5.6,2.2v17.4h-2.2v-21.1
	c0.7-0.1,1.4-0.2,2.2-0.2v2.1h0.1c1.5-1.5,3.6-2.4,5.7-2.4c2.2-0.2,4.2,1,5.2,3c1.8-1.9,4.3-2.9,6.9-3c3.1,0,5.9,1.4,5.9,6.3v15.3
	L369.3,393.3z M386.9,393.7c-1.5,0-3.1-0.3-4.5-0.9v8.9h-2.2v-29.5c0.7-0.1,1.4-0.2,2.2-0.2v1.9h0.1c1.8-1.5,4-2.3,6.3-2.2
	c4.3,0,7.4,2.8,7.4,10.4C396.2,390.3,392.7,393.7,386.9,393.7L386.9,393.7z M388.3,373.7c-2.1,0-4.2,0.7-5.9,2v15c1.5,0.6,3,1,4.6,1
	c4.5,0,6.9-2.4,6.9-9.4C393.9,375.5,391.8,373.7,388.3,373.7z M415.9,393.3v-1.9h-0.1c-2,1.4-4.3,2.2-6.8,2.2
	c-3.1,0-5.7-1.4-5.7-6.2v-15.2c0.7-0.1,1.4-0.2,2.2-0.2v15.6c0,2.4,1,4.1,3.8,4.1c2.3,0,4.6-0.7,6.6-2v-17.4
	c0.7-0.1,1.4-0.2,2.2-0.2v21.3L415.9,393.3z M433.1,393.7c-3.8,0-5.2-2-5.2-6.2v-13.6h-2.6V372h2.6v-4.7c0.7-0.2,1.4-0.4,2.2-0.4
	v5.1h5.3c0,0.6-0.1,1.3-0.2,1.9h-5v13.8c0,3,0.7,4,3,4c1.1,0,2.1-0.2,3.1-0.7c0.2,0.7,0.3,1.3,0.4,2
	C435.5,393.5,434.3,393.8,433.1,393.7L433.1,393.7z M456,382.6h-13.2v0.2c0,5.9,1.7,8.8,7,8.8c1.8,0,3.6-0.5,5.2-1.4
	c0.3,0.6,0.5,1.2,0.7,1.9c-1.8,1-3.9,1.5-6,1.4c-6,0-9.1-3.4-9.1-10.7c0-8.2,3.6-11.3,8.2-11.3c4.6,0,7.3,2.7,7.3,8
	C456.1,380.5,456.1,381.6,456,382.6z M442.9,380.9h11.1v-1.4c0-4.3-2.1-6-5.3-6C445.5,373.5,443.1,375.6,442.9,380.9z M478.1,382.2
	h-4.4v11.1h-2.3v-27.1c2.3-0.4,4.5-0.6,6.8-0.6c4.7,0,9.1,2.2,9.1,8.2C487.4,379.5,483,382.2,478.1,382.2L478.1,382.2z M478.4,367.5
	c-1,0-2.6,0.1-4.6,0.3v12.4h4c4.3,0,7.3-1.7,7.3-6.4S481.8,367.5,478.4,367.5L478.4,367.5z M503.5,374.1c-0.6-0.1-1.2-0.2-1.8-0.2
	c-1.4,0-3,0.2-5.3,2.9v16.5h-2.2v-21.1c0.7-0.1,1.4-0.2,2.2-0.2v2.7h0.1c2.6-2.8,4.2-3,5.5-3c0.6,0,1.2,0.1,1.7,0.2
	C503.7,372.6,503.7,373.4,503.5,374.1L503.5,374.1z M516.4,393.7c-5.2,0-8.6-3.1-8.6-11c0-7.2,3.5-11,8.7-11c5.2,0,8.6,2.9,8.6,11
	C525.2,390.3,521.4,393.7,516.4,393.7z M516.5,373.7c-3.5,0-6.4,1.7-6.4,9c0,7,2.4,9,6.3,9c3.9,0,6.4-1.9,6.4-9
	S520.3,373.7,516.5,373.7z M528.8,402.1c-0.2-0.7-0.3-1.4-0.4-2.1c3-0.2,4.1-1.9,4.1-4.7v-23.3h2.2v23.3c0.3,3.4-2.1,6.4-5.5,6.7
	C529,402.1,528.9,402.1,528.8,402.1z M533.5,367.4c-0.7,0-1.4-0.6-1.4-1.3c0-0.1,0-0.1,0-0.2c0-0.8,0.6-1.4,1.4-1.4
	c0.8,0,1.4,0.6,1.4,1.4l0,0c0.1,0.7-0.4,1.4-1.2,1.5C533.7,367.4,533.6,367.4,533.5,367.4z M557.4,382.6h-13.2v0.2
	c0,5.9,1.7,8.8,7,8.8c1.8,0,3.6-0.5,5.2-1.4c0.3,0.6,0.5,1.2,0.7,1.9c-1.8,1-3.9,1.5-6,1.4c-6,0-9.1-3.4-9.1-10.7
	c0-8.2,3.6-11.3,8.2-11.3s7.3,2.7,7.3,8C557.5,380.5,557.4,381.6,557.4,382.6L557.4,382.6z M544.3,380.9h11c0-0.5,0-0.9,0-1.4
	c0-4.3-2.1-6-5.3-6S544.4,375.6,544.3,380.9z M571.9,393.7c-6.1,0-9-3.7-9-10.6c0-8.2,3.8-11.4,8.6-11.4c1.8,0,3.6,0.3,5.4,0.9
	c0,0.7-0.2,1.4-0.4,2.1c-1.5-0.7-3.2-1-4.9-1c-3.8,0-6.3,2.1-6.3,8.5c0,7.4,2.2,9.5,6.7,9.5c1.8,0,3.5-0.4,5-1.3
	c0.3,0.6,0.5,1.3,0.6,2C575.8,393.3,573.9,393.7,571.9,393.7z M590.1,393.7c-3.9,0-5.2-2-5.2-6.2v-13.6h-2.6V372h2.6v-4.7
	c0.7-0.2,1.4-0.4,2.2-0.4v5.1h5.3c0,0.6-0.1,1.3-0.2,1.9H587v13.8c0,3,0.7,4,3,4c1.1,0,2.1-0.2,3.1-0.7c0.2,0.7,0.4,1.3,0.4,2
	C592.4,393.5,591.2,393.7,590.1,393.7L590.1,393.7z M604.3,374.2c0-1.2,0.2-2.3,0.7-3.4c0.4-1,1.1-1.9,1.9-2.7
	c1.6-1.6,3.8-2.5,6-2.5c3.4,0,6.5,2,7.9,5.1c0.5,1.1,0.7,2.2,0.7,3.4c0,1.2-0.2,2.3-0.7,3.4c-0.5,1-1.1,1.9-1.9,2.7
	c-0.8,0.8-1.7,1.4-2.7,1.8c-1.1,0.4-2.2,0.6-3.3,0.6c-1.1,0-2.3-0.2-3.3-0.6c-2-0.8-3.7-2.4-4.6-4.5
	C604.5,376.5,604.3,375.3,604.3,374.2L604.3,374.2z M605.7,374.2c0,1,0.2,2,0.6,2.9c0.4,0.9,0.9,1.6,1.5,2.3
	c0.7,0.6,1.4,1.2,2.3,1.5c1.8,0.8,3.9,0.8,5.7,0c0.9-0.4,1.6-0.9,2.3-1.6c0.7-0.7,1.2-1.4,1.5-2.3c0.4-0.9,0.6-1.9,0.6-2.9
	c0-1-0.2-2-0.6-2.9c-0.7-1.7-2.1-3.1-3.8-3.8c-0.9-0.4-1.9-0.6-2.9-0.6c-1,0-1.9,0.2-2.8,0.6c-0.8,0.4-1.6,0.9-2.3,1.5
	c-0.7,0.7-1.2,1.4-1.5,2.3C605.9,372.1,605.7,373.1,605.7,374.2z M609.7,369.2h3.6c0.9-0.1,1.8,0.2,2.6,0.7c0.6,0.5,0.9,1.4,0.9,2.2
	c0,0.7-0.2,1.4-0.8,1.9c-0.5,0.4-1.2,0.7-1.9,0.7l2.8,4.3h-1.5l-2.6-4.2H611v4.2h-1.4L609.7,369.2z M611.1,373.6h2.7
	c0.3,0,0.6-0.1,0.9-0.2c0.2-0.1,0.4-0.3,0.6-0.5c0.2-0.3,0.2-0.6,0.2-0.9c0-0.3-0.1-0.6-0.2-0.8c-0.1-0.2-0.3-0.4-0.5-0.5
	c-0.2-0.1-0.5-0.2-0.7-0.2h-3L611.1,373.6z"/>
</svg>
